<svg width="16" height="16" viewBox="0 0 16 16" fill="none" xmlns="http://www.w3.org/2000/svg">
<path d="M7.25812 6.75478C7.53589 7.03301 7.987 7.03301 8.26523 6.75478L11.035 3.98545C11.1684 3.8518 11.2433 3.6707 11.2433 3.48189C11.2433 3.29308 11.1684 3.11199 11.035 2.97834L8.26523 0.209005C8.19917 0.142755 8.12068 0.0901913 8.03428 0.0543263C7.94787 0.0184614 7.85523 0 7.76167 0C7.66811 0 7.57548 0.0184614 7.48907 0.0543263C7.40266 0.0901913 7.32418 0.142755 7.25812 0.209005L4.48834 2.97834C4.42209 3.0444 4.36952 3.12288 4.33366 3.20929C4.29779 3.2957 4.27933 3.38834 4.27933 3.48189C4.27933 3.57545 4.29779 3.66809 4.33366 3.7545C4.36952 3.84091 4.42209 3.91939 4.48834 3.98545L7.25812 6.75478ZM11.5386 11.0348C11.8163 11.313 12.2674 11.313 12.5457 11.0348L15.3154 8.26545C15.4488 8.1318 15.5237 7.9507 15.5237 7.76189C15.5237 7.57308 15.4488 7.39199 15.3154 7.25834L12.5457 4.489C12.4796 4.42275 12.4011 4.37019 12.3147 4.33433C12.2283 4.29846 12.1357 4.28 12.0421 4.28C11.9486 4.28 11.8559 4.29846 11.7695 4.33433C11.6831 4.37019 11.6046 4.42275 11.5386 4.489L8.76878 7.25834C8.70253 7.3244 8.64997 7.40288 8.6141 7.48929C8.57824 7.5757 8.55978 7.66834 8.55978 7.76189C8.55978 7.85545 8.57824 7.94809 8.6141 8.0345C8.64997 8.12091 8.70253 8.19939 8.76878 8.26545L11.5386 11.0348ZM11.0346 11.5388L8.26523 8.769C8.19917 8.70275 8.12068 8.65019 8.03428 8.61433C7.94787 8.57846 7.85523 8.56 7.76167 8.56C7.66811 8.56 7.57548 8.57846 7.48907 8.61433C7.40266 8.65019 7.32418 8.70275 7.25812 8.769L4.48878 11.5388C4.4226 11.6048 4.37009 11.6833 4.33427 11.7697C4.29844 11.856 4.28 11.9486 4.28 12.0421C4.28 12.1356 4.29844 12.2282 4.33427 12.3146C4.37009 12.4009 4.4226 12.4794 4.48878 12.5454L7.25812 15.3152C7.53634 15.593 7.987 15.593 8.26523 15.3152L11.0346 12.5454C11.1007 12.4794 11.1532 12.4009 11.1891 12.3146C11.2249 12.2282 11.2433 12.1356 11.2433 12.0421C11.2433 11.9486 11.2249 11.856 11.1891 11.7697C11.1532 11.6833 11.1007 11.6048 11.0346 11.5388ZM6.75456 7.25878L3.98523 4.489C3.91917 4.42275 3.84068 4.37019 3.75427 4.33433C3.66787 4.29846 3.57523 4.28 3.48167 4.28C3.38811 4.28 3.29548 4.29846 3.20907 4.33433C3.12266 4.37019 3.04417 4.42275 2.97812 4.489L0.208782 7.25878C0.142599 7.32483 0.0900916 7.40329 0.0542661 7.48966C0.0184405 7.57603 0 7.66861 0 7.76212C0 7.85562 0.0184405 7.94821 0.0542661 8.03457C0.0900916 8.12094 0.142599 8.1994 0.208782 8.26545L2.97812 11.0352C3.25634 11.313 3.707 11.313 3.98523 11.0352L6.75456 8.26545C6.82074 8.1994 6.87325 8.12094 6.90908 8.03457C6.9449 7.94821 6.96334 7.85562 6.96334 7.76212C6.96334 7.66861 6.9449 7.57603 6.90908 7.48966C6.87325 7.40329 6.82074 7.32483 6.75456 7.25878Z" fill="#55ACEE"/>
</svg>
